# xmcd
#
# Track frame offsets:
#	150
#	22733
#	36510
#	52604
#	84161
#	105293
#	123908
#	144182
#	162215
#	177890
#	192810
#	214924
#
# Disc length: 3137 seconds
#
# Revision: 0
# Processed by: cddbd v1.5.2PL0 Copyright (c) Steve Scherf et al.
# Submitted via: dBpowerAMP V4.0
#
DISCID=870c3f0c
DTITLE=Vince Mehl Blues Band - A la clé
DYEAR=2011
DGENRE=Blues
TTITLE0=Merci
TTITLE1=Je doute de moi
TTITLE2=Une place à tes côtés
TTITLE3=A la clé
TTITLE4=Show'n'roll
TTITLE5=Ce que j'aime
TTITLE6=Le blues de la loose
TTITLE7=Toujours sur la route
TTITLE8=Du temps au temps
TTITLE9=Fest-Noz à Quiberon
TTITLE10=On va y arriver
TTITLE11=San Francisco
EXTD=
EXTT0=
EXTT1=
EXTT2=
EXTT3=
EXTT4=
EXTT5=
EXTT6=
EXTT7=
EXTT8=
EXTT9=
EXTT10=
EXTT11=
PLAYORDER=
